<svg width="327" height="269" viewBox="0 0 327 269" fill="none" xmlns="http://www.w3.org/2000/svg">
<rect width="327" height="266" rx="8" fill="#F2F4F7"/>
<rect x="16" y="16" width="295" height="130" rx="8" fill="white"/>
<path d="M45.28 39.9966V51.1646H43.04V43.9006L40.048 51.1646H38.352L35.344 43.9006V51.1646H33.104V39.9966H35.648L39.2 48.3006L42.752 39.9966H45.28ZM55.6546 42.3006L50.1666 55.3566H47.7826L49.7026 50.9406L46.1506 42.3006H48.6626L50.9506 48.4926L53.2706 42.3006H55.6546ZM62.2746 43.5966C62.5626 43.1699 62.9573 42.8232 63.4586 42.5566C63.9706 42.2899 64.552 42.1566 65.2026 42.1566C65.96 42.1566 66.6426 42.3432 67.2506 42.7166C67.8693 43.0899 68.3546 43.6232 68.7066 44.3166C69.0693 44.9992 69.2506 45.7939 69.2506 46.7006C69.2506 47.6072 69.0693 48.4126 68.7066 49.1166C68.3546 49.8099 67.8693 50.3486 67.2506 50.7326C66.6426 51.1166 65.96 51.3086 65.2026 51.3086C64.5413 51.3086 63.96 51.1806 63.4586 50.9246C62.968 50.6579 62.5733 50.3166 62.2746 49.9006V51.1646H60.0346V39.3246H62.2746V43.5966ZM66.9626 46.7006C66.9626 46.1672 66.8506 45.7086 66.6266 45.3246C66.4133 44.9299 66.1253 44.6312 65.7626 44.4286C65.4106 44.2259 65.0266 44.1246 64.6106 44.1246C64.2053 44.1246 63.8213 44.2312 63.4586 44.4446C63.1066 44.6472 62.8186 44.9459 62.5946 45.3406C62.3813 45.7352 62.2746 46.1992 62.2746 46.7326C62.2746 47.2659 62.3813 47.7299 62.5946 48.1246C62.8186 48.5192 63.1066 48.8232 63.4586 49.0366C63.8213 49.2392 64.2053 49.3406 64.6106 49.3406C65.0266 49.3406 65.4106 49.2339 65.7626 49.0206C66.1253 48.8072 66.4133 48.5032 66.6266 48.1086C66.8506 47.7139 66.9626 47.2446 66.9626 46.7006ZM69.9824 46.7006C69.9824 45.8046 70.1584 45.0099 70.5104 44.3166C70.873 43.6232 71.3584 43.0899 71.9664 42.7166C72.585 42.3432 73.273 42.1566 74.0304 42.1566C74.6917 42.1566 75.2677 42.2899 75.7584 42.5566C76.2597 42.8232 76.6597 43.1592 76.9584 43.5646V42.3006H79.2144V51.1646H76.9584V49.8686C76.6704 50.2846 76.2704 50.6312 75.7584 50.9086C75.257 51.1752 74.6757 51.3086 74.0144 51.3086C73.2677 51.3086 72.585 51.1166 71.9664 50.7326C71.3584 50.3486 70.873 49.8099 70.5104 49.1166C70.1584 48.4126 69.9824 47.6072 69.9824 46.7006ZM76.9584 46.7326C76.9584 46.1886 76.8517 45.7246 76.6384 45.3406C76.425 44.9459 76.137 44.6472 75.7744 44.4446C75.4117 44.2312 75.0224 44.1246 74.6064 44.1246C74.1904 44.1246 73.8064 44.2259 73.4544 44.4286C73.1024 44.6312 72.8144 44.9299 72.5904 45.3246C72.377 45.7086 72.2704 46.1672 72.2704 46.7006C72.2704 47.2339 72.377 47.7032 72.5904 48.1086C72.8144 48.5032 73.1024 48.8072 73.4544 49.0206C73.817 49.2339 74.201 49.3406 74.6064 49.3406C75.0224 49.3406 75.4117 49.2392 75.7744 49.0366C76.137 48.8232 76.425 48.5246 76.6384 48.1406C76.8517 47.7459 76.9584 47.2766 76.9584 46.7326ZM83.3221 39.3246V51.1646H81.0821V39.3246H83.3221ZM84.6393 46.7006C84.6393 45.8046 84.8153 45.0099 85.1673 44.3166C85.5299 43.6232 86.0153 43.0899 86.6233 42.7166C87.2419 42.3432 87.9299 42.1566 88.6873 42.1566C89.3486 42.1566 89.9246 42.2899 90.4153 42.5566C90.9166 42.8232 91.3166 43.1592 91.6153 43.5646V42.3006H93.8713V51.1646H91.6153V49.8686C91.3273 50.2846 90.9273 50.6312 90.4153 50.9086C89.9139 51.1752 89.3326 51.3086 88.6713 51.3086C87.9246 51.3086 87.2419 51.1166 86.6233 50.7326C86.0153 50.3486 85.5299 49.8099 85.1673 49.1166C84.8153 48.4126 84.6393 47.6072 84.6393 46.7006ZM91.6153 46.7326C91.6153 46.1886 91.5086 45.7246 91.2953 45.3406C91.0819 44.9459 90.7939 44.6472 90.4313 44.4446C90.0686 44.2312 89.6793 44.1246 89.2633 44.1246C88.8473 44.1246 88.4633 44.2259 88.1113 44.4286C87.7593 44.6312 87.4713 44.9299 87.2473 45.3246C87.0339 45.7086 86.9273 46.1672 86.9273 46.7006C86.9273 47.2339 87.0339 47.7032 87.2473 48.1086C87.4713 48.5032 87.7593 48.8072 88.1113 49.0206C88.4739 49.2339 88.8579 49.3406 89.2633 49.3406C89.6793 49.3406 90.0686 49.2392 90.4313 49.0366C90.7939 48.8232 91.0819 48.5246 91.2953 48.1406C91.5086 47.7459 91.6153 47.2766 91.6153 46.7326ZM100.651 42.1726C101.707 42.1726 102.56 42.5086 103.211 43.1806C103.862 43.8419 104.187 44.7699 104.187 45.9646V51.1646H101.947V46.2686C101.947 45.5646 101.771 45.0259 101.419 44.6526C101.067 44.2686 100.587 44.0766 99.979 44.0766C99.3603 44.0766 98.8697 44.2686 98.507 44.6526C98.155 45.0259 97.979 45.5646 97.979 46.2686V51.1646H95.739V42.3006H97.979V43.4046C98.2777 43.0206 98.6563 42.7219 99.115 42.5086C99.5843 42.2846 100.096 42.1726 100.651 42.1726ZM105.421 46.7326C105.421 45.8152 105.608 45.0152 105.981 44.3326C106.354 43.6392 106.872 43.1059 107.533 42.7326C108.194 42.3486 108.952 42.1566 109.805 42.1566C110.904 42.1566 111.81 42.4339 112.525 42.9886C113.25 43.5326 113.736 44.3006 113.981 45.2926H111.565C111.437 44.9086 111.218 44.6099 110.909 44.3966C110.61 44.1726 110.237 44.0606 109.789 44.0606C109.149 44.0606 108.642 44.2952 108.269 44.7646C107.896 45.2232 107.709 45.8792 107.709 46.7326C107.709 47.5752 107.896 48.2312 108.269 48.7006C108.642 49.1592 109.149 49.3886 109.789 49.3886C110.696 49.3886 111.288 48.9832 111.565 48.1726H113.981C113.736 49.1326 113.25 49.8952 112.525 50.4606C111.8 51.0259 110.893 51.3086 109.805 51.3086C108.952 51.3086 108.194 51.1219 107.533 50.7486C106.872 50.3646 106.354 49.8312 105.981 49.1486C105.608 48.4552 105.421 47.6499 105.421 46.7326ZM123.542 46.5406C123.542 46.8606 123.521 47.1486 123.478 47.4046H116.998C117.051 48.0446 117.275 48.5459 117.67 48.9086C118.065 49.2712 118.55 49.4526 119.126 49.4526C119.958 49.4526 120.55 49.0952 120.902 48.3806H123.318C123.062 49.2339 122.571 49.9379 121.846 50.4926C121.121 51.0366 120.23 51.3086 119.174 51.3086C118.321 51.3086 117.553 51.1219 116.87 50.7486C116.198 50.3646 115.67 49.8259 115.286 49.1326C114.913 48.4392 114.726 47.6392 114.726 46.7326C114.726 45.8152 114.913 45.0099 115.286 44.3166C115.659 43.6232 116.182 43.0899 116.854 42.7166C117.526 42.3432 118.299 42.1566 119.174 42.1566C120.017 42.1566 120.769 42.3379 121.43 42.7006C122.102 43.0632 122.619 43.5806 122.982 44.2526C123.355 44.9139 123.542 45.6766 123.542 46.5406ZM121.222 45.9006C121.211 45.3246 121.003 44.8659 120.598 44.5246C120.193 44.1726 119.697 43.9966 119.11 43.9966C118.555 43.9966 118.086 44.1672 117.702 44.5086C117.329 44.8392 117.099 45.3032 117.014 45.9006H121.222Z" fill="#1D2939"/>
<path d="M189.976 51L187.416 46.552H186.024V51H184.2V39.88H188.04C188.893 39.88 189.613 40.0293 190.2 40.328C190.797 40.6267 191.24 41.0267 191.528 41.528C191.827 42.0293 191.976 42.5893 191.976 43.208C191.976 43.9333 191.763 44.5947 191.336 45.192C190.92 45.7787 190.275 46.1787 189.4 46.392L192.152 51H189.976ZM186.024 45.096H188.04C188.723 45.096 189.235 44.9253 189.576 44.584C189.928 44.2427 190.104 43.784 190.104 43.208C190.104 42.632 189.933 42.184 189.592 41.864C189.251 41.5333 188.733 41.368 188.04 41.368H186.024V45.096ZM201.493 47.832C201.493 48.3653 201.36 48.8667 201.093 49.336C200.837 49.8053 200.453 50.2 199.941 50.52C199.44 50.84 198.843 51.032 198.149 51.096V52.392H197.109V51.096C196.107 51 195.296 50.6853 194.677 50.152C194.059 49.6187 193.749 48.9147 193.749 48.04H195.701C195.733 48.456 195.867 48.8027 196.101 49.08C196.336 49.3467 196.672 49.5173 197.109 49.592V46.072C196.395 45.8907 195.813 45.7093 195.365 45.528C194.917 45.336 194.533 45.0373 194.213 44.632C193.904 44.2267 193.749 43.672 193.749 42.968C193.749 42.0827 194.059 41.352 194.677 40.776C195.296 40.1893 196.107 39.848 197.109 39.752V38.456H198.149V39.752C199.088 39.8373 199.84 40.136 200.405 40.648C200.981 41.1493 201.307 41.8427 201.381 42.728H199.429C199.397 42.3973 199.269 42.104 199.045 41.848C198.821 41.5813 198.523 41.4 198.149 41.304V44.76C198.864 44.9307 199.445 45.112 199.893 45.304C200.341 45.4853 200.72 45.7787 201.029 46.184C201.339 46.5787 201.493 47.128 201.493 47.832ZM195.605 42.872C195.605 43.3093 195.733 43.6507 195.989 43.896C196.256 44.1413 196.629 44.3387 197.109 44.488V41.256C196.651 41.3093 196.283 41.4747 196.005 41.752C195.739 42.0293 195.605 42.4027 195.605 42.872ZM198.149 49.592C198.619 49.5173 198.987 49.3307 199.253 49.032C199.52 48.7227 199.653 48.3547 199.653 47.928C199.653 47.5013 199.52 47.1707 199.253 46.936C198.997 46.6907 198.629 46.4933 198.149 46.344V49.592ZM207.453 40.2V37.878H211.791V51H209.199V40.2H207.453ZM213.92 44.268C213.92 42.192 214.292 40.566 215.036 39.39C215.792 38.214 217.04 37.626 218.78 37.626C220.52 37.626 221.762 38.214 222.506 39.39C223.262 40.566 223.64 42.192 223.64 44.268C223.64 46.356 223.262 47.994 222.506 49.182C221.762 50.37 220.52 50.964 218.78 50.964C217.04 50.964 215.792 50.37 215.036 49.182C214.292 47.994 213.92 46.356 213.92 44.268ZM221.156 44.268C221.156 43.38 221.096 42.636 220.976 42.036C220.868 41.424 220.64 40.926 220.292 40.542C219.956 40.158 219.452 39.966 218.78 39.966C218.108 39.966 217.598 40.158 217.25 40.542C216.914 40.926 216.686 41.424 216.566 42.036C216.458 42.636 216.404 43.38 216.404 44.268C216.404 45.18 216.458 45.948 216.566 46.572C216.674 47.184 216.902 47.682 217.25 48.066C217.598 48.438 218.108 48.624 218.78 48.624C219.452 48.624 219.962 48.438 220.31 48.066C220.658 47.682 220.886 47.184 220.994 46.572C221.102 45.948 221.156 45.18 221.156 44.268ZM226.601 51.126C226.145 51.126 225.767 50.988 225.467 50.712C225.179 50.424 225.035 50.07 225.035 49.65C225.035 49.23 225.179 48.882 225.467 48.606C225.767 48.318 226.145 48.174 226.601 48.174C227.045 48.174 227.411 48.318 227.699 48.606C227.987 48.882 228.131 49.23 228.131 49.65C228.131 50.07 227.987 50.424 227.699 50.712C227.411 50.988 227.045 51.126 226.601 51.126ZM229.513 44.268C229.513 42.192 229.885 40.566 230.629 39.39C231.385 38.214 232.633 37.626 234.373 37.626C236.113 37.626 237.355 38.214 238.099 39.39C238.855 40.566 239.233 42.192 239.233 44.268C239.233 46.356 238.855 47.994 238.099 49.182C237.355 50.37 236.113 50.964 234.373 50.964C232.633 50.964 231.385 50.37 230.629 49.182C229.885 47.994 229.513 46.356 229.513 44.268ZM236.749 44.268C236.749 43.38 236.689 42.636 236.569 42.036C236.461 41.424 236.233 40.926 235.885 40.542C235.549 40.158 235.045 39.966 234.373 39.966C233.701 39.966 233.191 40.158 232.843 40.542C232.507 40.926 232.279 41.424 232.159 42.036C232.051 42.636 231.997 43.38 231.997 44.268C231.997 45.18 232.051 45.948 232.159 46.572C232.267 47.184 232.495 47.682 232.843 48.066C233.191 48.438 233.701 48.624 234.373 48.624C235.045 48.624 235.555 48.438 235.903 48.066C236.251 47.682 236.479 47.184 236.587 46.572C236.695 45.948 236.749 45.18 236.749 44.268ZM240.789 44.268C240.789 42.192 241.161 40.566 241.905 39.39C242.661 38.214 243.909 37.626 245.649 37.626C247.389 37.626 248.631 38.214 249.375 39.39C250.131 40.566 250.509 42.192 250.509 44.268C250.509 46.356 250.131 47.994 249.375 49.182C248.631 50.37 247.389 50.964 245.649 50.964C243.909 50.964 242.661 50.37 241.905 49.182C241.161 47.994 240.789 46.356 240.789 44.268ZM248.025 44.268C248.025 43.38 247.965 42.636 247.845 42.036C247.737 41.424 247.509 40.926 247.161 40.542C246.825 40.158 246.321 39.966 245.649 39.966C244.977 39.966 244.467 40.158 244.119 40.542C243.783 40.926 243.555 41.424 243.435 42.036C243.327 42.636 243.273 43.38 243.273 44.268C243.273 45.18 243.327 45.948 243.435 46.572C243.543 47.184 243.771 47.682 244.119 48.066C244.467 48.438 244.977 48.624 245.649 48.624C246.321 48.624 246.831 48.438 247.179 48.066C247.527 47.682 247.755 47.184 247.863 46.572C247.971 45.948 248.025 45.18 248.025 44.268ZM252.066 44.268C252.066 42.192 252.438 40.566 253.182 39.39C253.938 38.214 255.186 37.626 256.926 37.626C258.666 37.626 259.908 38.214 260.652 39.39C261.408 40.566 261.786 42.192 261.786 44.268C261.786 46.356 261.408 47.994 260.652 49.182C259.908 50.37 258.666 50.964 256.926 50.964C255.186 50.964 253.938 50.37 253.182 49.182C252.438 47.994 252.066 46.356 252.066 44.268ZM259.302 44.268C259.302 43.38 259.242 42.636 259.122 42.036C259.014 41.424 258.786 40.926 258.438 40.542C258.102 40.158 257.598 39.966 256.926 39.966C256.254 39.966 255.744 40.158 255.396 40.542C255.06 40.926 254.832 41.424 254.712 42.036C254.604 42.636 254.55 43.38 254.55 44.268C254.55 45.18 254.604 45.948 254.712 46.572C254.82 47.184 255.048 47.682 255.396 48.066C255.744 48.438 256.254 48.624 256.926 48.624C257.598 48.624 258.108 48.438 258.456 48.066C258.804 47.682 259.032 47.184 259.14 46.572C259.248 45.948 259.302 45.18 259.302 44.268Z" fill="#1D2939"/>
<path d="M277 42L283 48L289 42" stroke="black" stroke-width="2" stroke-linecap="round" stroke-linejoin="round"/>
<rect x="32" y="82" width="263" height="48" rx="8" fill="#E60022"/>
<path d="M134.117 97C134.624 97 135.031 97.4319 135.031 97.9643C135.031 98.4967 134.624 98.9286 134.117 98.9286H120.102C119.26 98.9286 118.578 99.6482 118.578 100.536V111.464C118.578 112.352 119.26 113.071 120.102 113.071H132.898C133.74 113.071 134.422 112.352 134.422 111.464V104.393C134.422 103.505 133.74 102.786 132.898 102.786H121.32C120.814 102.786 120.406 102.356 120.406 101.821C120.406 101.287 120.814 100.857 121.32 100.857H132.898C134.749 100.857 136.25 102.44 136.25 104.393V111.464C136.25 113.417 134.749 115 132.898 115H120.102C118.251 115 116.75 113.417 116.75 111.464V100.536C116.75 98.583 118.251 97 120.102 97H134.117ZM130.156 107.929C130.156 107.217 130.701 106.643 131.375 106.643C132.049 106.643 132.594 107.217 132.594 107.929C132.594 108.64 132.049 109.214 131.375 109.214C130.701 109.214 130.156 108.64 130.156 107.929Z" fill="white"/>
<path d="M160.127 100.832V112H157.887V104.736L154.895 112H153.199L150.191 104.736V112H147.951V100.832H150.495L154.047 109.136L157.599 100.832H160.127ZM170.262 107.376C170.262 107.696 170.24 107.984 170.198 108.24H163.717C163.771 108.88 163.995 109.381 164.389 109.744C164.784 110.107 165.269 110.288 165.845 110.288C166.677 110.288 167.269 109.931 167.622 109.216H170.038C169.781 110.069 169.291 110.773 168.565 111.328C167.84 111.872 166.949 112.144 165.893 112.144C165.04 112.144 164.272 111.957 163.589 111.584C162.917 111.2 162.389 110.661 162.005 109.968C161.632 109.275 161.445 108.475 161.445 107.568C161.445 106.651 161.632 105.845 162.005 105.152C162.379 104.459 162.901 103.925 163.573 103.552C164.245 103.179 165.019 102.992 165.893 102.992C166.736 102.992 167.488 103.173 168.149 103.536C168.822 103.899 169.339 104.416 169.701 105.088C170.075 105.749 170.262 106.512 170.262 107.376ZM167.941 106.736C167.931 106.16 167.723 105.701 167.317 105.36C166.912 105.008 166.416 104.832 165.829 104.832C165.275 104.832 164.805 105.003 164.421 105.344C164.048 105.675 163.819 106.139 163.733 106.736H167.941ZM171 107.536C171 106.64 171.176 105.845 171.528 105.152C171.891 104.459 172.382 103.925 173 103.552C173.619 103.179 174.307 102.992 175.064 102.992C175.641 102.992 176.19 103.12 176.713 103.376C177.235 103.621 177.651 103.952 177.961 104.368V100.16H180.233V112H177.961V110.688C177.683 111.125 177.294 111.477 176.793 111.744C176.291 112.011 175.71 112.144 175.049 112.144C174.302 112.144 173.619 111.952 173 111.568C172.382 111.184 171.891 110.645 171.528 109.952C171.176 109.248 171 108.443 171 107.536ZM177.977 107.568C177.977 107.024 177.87 106.56 177.657 106.176C177.443 105.781 177.155 105.483 176.793 105.28C176.43 105.067 176.041 104.96 175.625 104.96C175.209 104.96 174.825 105.061 174.472 105.264C174.12 105.467 173.832 105.765 173.609 106.16C173.395 106.544 173.289 107.003 173.289 107.536C173.289 108.069 173.395 108.539 173.609 108.944C173.832 109.339 174.12 109.643 174.472 109.856C174.835 110.069 175.219 110.176 175.625 110.176C176.041 110.176 176.43 110.075 176.793 109.872C177.155 109.659 177.443 109.36 177.657 108.976C177.87 108.581 177.977 108.112 177.977 107.568ZM183.236 102.08C182.842 102.08 182.511 101.957 182.244 101.712C181.988 101.456 181.86 101.141 181.86 100.768C181.86 100.395 181.988 100.085 182.244 99.84C182.511 99.584 182.842 99.456 183.236 99.456C183.631 99.456 183.956 99.584 184.212 99.84C184.479 100.085 184.612 100.395 184.612 100.768C184.612 101.141 184.479 101.456 184.212 101.712C183.956 101.957 183.631 102.08 183.236 102.08ZM184.34 103.136V112H182.1V103.136H184.34ZM194.601 103.136V112H192.345V110.88C192.057 111.264 191.679 111.568 191.209 111.792C190.751 112.005 190.249 112.112 189.705 112.112C189.012 112.112 188.399 111.968 187.865 111.68C187.332 111.381 186.911 110.949 186.601 110.384C186.303 109.808 186.153 109.125 186.153 108.336V103.136H188.393V108.016C188.393 108.72 188.569 109.264 188.921 109.648C189.273 110.021 189.753 110.208 190.361 110.208C190.98 110.208 191.465 110.021 191.817 109.648C192.169 109.264 192.345 108.72 192.345 108.016V103.136H194.601ZM207.5 103.008C208.588 103.008 209.462 103.344 210.124 104.016C210.796 104.677 211.132 105.605 211.132 106.8V112H208.892V107.104C208.892 106.411 208.716 105.883 208.364 105.52C208.012 105.147 207.532 104.96 206.924 104.96C206.316 104.96 205.83 105.147 205.468 105.52C205.116 105.883 204.94 106.411 204.94 107.104V112H202.7V107.104C202.7 106.411 202.524 105.883 202.172 105.52C201.82 105.147 201.34 104.96 200.732 104.96C200.113 104.96 199.622 105.147 199.26 105.52C198.908 105.883 198.732 106.411 198.732 107.104V112H196.492V103.136H198.732V104.208C199.02 103.835 199.388 103.541 199.836 103.328C200.294 103.115 200.796 103.008 201.34 103.008C202.033 103.008 202.652 103.157 203.196 103.456C203.74 103.744 204.161 104.16 204.46 104.704C204.748 104.192 205.164 103.781 205.708 103.472C206.262 103.163 206.86 103.008 207.5 103.008Z" fill="white"/>
<path d="M29.28 176.832V188H27.04V180.736L24.048 188H22.352L19.344 180.736V188H17.104V176.832H19.648L23.2 185.136L26.752 176.832H29.28ZM39.6546 179.136L34.1666 192.192H31.7826L33.7026 187.776L30.1506 179.136H32.6626L34.9506 185.328L37.2706 179.136H39.6546ZM47.7306 185.936L49.9706 179.136H52.3546L49.0746 188H46.3546L43.0906 179.136H45.4906L47.7306 185.936ZM54.4288 178.08C54.0341 178.08 53.7034 177.957 53.4368 177.712C53.1808 177.456 53.0528 177.141 53.0528 176.768C53.0528 176.395 53.1808 176.085 53.4368 175.84C53.7034 175.584 54.0341 175.456 54.4288 175.456C54.8234 175.456 55.1488 175.584 55.4048 175.84C55.6714 176.085 55.8048 176.395 55.8048 176.768C55.8048 177.141 55.6714 177.456 55.4048 177.712C55.1488 177.957 54.8234 178.08 54.4288 178.08ZM55.5328 179.136V188H53.2928V179.136H55.5328ZM59.6659 180.512C59.9539 180.043 60.3272 179.675 60.7859 179.408C61.2552 179.141 61.7885 179.008 62.3859 179.008V181.36H61.7939C61.0899 181.36 60.5565 181.525 60.1939 181.856C59.8419 182.187 59.6659 182.763 59.6659 183.584V188H57.4259V179.136H59.6659V180.512ZM66.1826 180.976V185.264C66.1826 185.563 66.252 185.781 66.3906 185.92C66.54 186.048 66.7853 186.112 67.1266 186.112H68.1666V188H66.7586C64.8706 188 63.9266 187.083 63.9266 185.248V180.976H62.8706V179.136H63.9266V176.944H66.1826V179.136H68.1666V180.976H66.1826ZM77.8257 179.136V188H75.5697V186.88C75.2817 187.264 74.9031 187.568 74.4337 187.792C73.9751 188.005 73.4737 188.112 72.9297 188.112C72.2364 188.112 71.6231 187.968 71.0897 187.68C70.5564 187.381 70.1351 186.949 69.8257 186.384C69.5271 185.808 69.3777 185.125 69.3777 184.336V179.136H71.6177V184.016C71.6177 184.72 71.7937 185.264 72.1457 185.648C72.4977 186.021 72.9777 186.208 73.5857 186.208C74.2044 186.208 74.6897 186.021 75.0417 185.648C75.3937 185.264 75.5697 184.72 75.5697 184.016V179.136H77.8257ZM79.1399 183.536C79.1399 182.64 79.3159 181.845 79.6679 181.152C80.0305 180.459 80.5159 179.925 81.1239 179.552C81.7425 179.179 82.4305 178.992 83.1879 178.992C83.8492 178.992 84.4252 179.125 84.9159 179.392C85.4172 179.659 85.8172 179.995 86.1159 180.4V179.136H88.3719V188H86.1159V186.704C85.8279 187.12 85.4279 187.467 84.9159 187.744C84.4145 188.011 83.8332 188.144 83.1719 188.144C82.4252 188.144 81.7425 187.952 81.1239 187.568C80.5159 187.184 80.0305 186.645 79.6679 185.952C79.3159 185.248 79.1399 184.443 79.1399 183.536ZM86.1159 183.568C86.1159 183.024 86.0092 182.56 85.7959 182.176C85.5825 181.781 85.2945 181.483 84.9319 181.28C84.5692 181.067 84.1799 180.96 83.7639 180.96C83.3479 180.96 82.9639 181.061 82.6119 181.264C82.2599 181.467 81.9719 181.765 81.7479 182.16C81.5345 182.544 81.4279 183.003 81.4279 183.536C81.4279 184.069 81.5345 184.539 81.7479 184.944C81.9719 185.339 82.2599 185.643 82.6119 185.856C82.9745 186.069 83.3585 186.176 83.7639 186.176C84.1799 186.176 84.5692 186.075 84.9319 185.872C85.2945 185.659 85.5825 185.36 85.7959 184.976C86.0092 184.581 86.1159 184.112 86.1159 183.568ZM92.4796 176.16V188H90.2396V176.16H92.4796ZM97.2893 183.568C97.2893 182.651 97.4759 181.851 97.8493 181.168C98.2226 180.475 98.7399 179.941 99.4013 179.568C100.063 179.184 100.82 178.992 101.673 178.992C102.772 178.992 103.679 179.269 104.393 179.824C105.119 180.368 105.604 181.136 105.849 182.128H103.433C103.305 181.744 103.087 181.445 102.777 181.232C102.479 181.008 102.105 180.896 101.657 180.896C101.017 180.896 100.511 181.131 100.137 181.6C99.7639 182.059 99.5773 182.715 99.5773 183.568C99.5773 184.411 99.7639 185.067 100.137 185.536C100.511 185.995 101.017 186.224 101.657 186.224C102.564 186.224 103.156 185.819 103.433 185.008H105.849C105.604 185.968 105.119 186.731 104.393 187.296C103.668 187.861 102.761 188.144 101.673 188.144C100.82 188.144 100.063 187.957 99.4013 187.584C98.7399 187.2 98.2226 186.667 97.8493 185.984C97.4759 185.291 97.2893 184.485 97.2893 183.568ZM106.594 183.536C106.594 182.64 106.77 181.845 107.122 181.152C107.485 180.459 107.97 179.925 108.578 179.552C109.197 179.179 109.885 178.992 110.642 178.992C111.304 178.992 111.88 179.125 112.37 179.392C112.872 179.659 113.272 179.995 113.57 180.4V179.136H115.826V188H113.57V186.704C113.282 187.12 112.882 187.467 112.37 187.744C111.869 188.011 111.288 188.144 110.626 188.144C109.88 188.144 109.197 187.952 108.578 187.568C107.97 187.184 107.485 186.645 107.122 185.952C106.77 185.248 106.594 184.443 106.594 183.536ZM113.57 183.568C113.57 183.024 113.464 182.56 113.25 182.176C113.037 181.781 112.749 181.483 112.386 181.28C112.024 181.067 111.634 180.96 111.218 180.96C110.802 180.96 110.418 181.061 110.066 181.264C109.714 181.467 109.426 181.765 109.202 182.16C108.989 182.544 108.882 183.003 108.882 183.536C108.882 184.069 108.989 184.539 109.202 184.944C109.426 185.339 109.714 185.643 110.066 185.856C110.429 186.069 110.813 186.176 111.218 186.176C111.634 186.176 112.024 186.075 112.386 185.872C112.749 185.659 113.037 185.36 113.25 184.976C113.464 184.581 113.57 184.112 113.57 183.568ZM119.934 180.512C120.222 180.043 120.595 179.675 121.054 179.408C121.523 179.141 122.057 179.008 122.654 179.008V181.36H122.062C121.358 181.36 120.825 181.525 120.462 181.856C120.11 182.187 119.934 182.763 119.934 183.584V188H117.694V179.136H119.934V180.512ZM123.267 183.536C123.267 182.64 123.443 181.845 123.795 181.152C124.157 180.459 124.648 179.925 125.267 179.552C125.885 179.179 126.573 178.992 127.331 178.992C127.907 178.992 128.456 179.12 128.979 179.376C129.501 179.621 129.917 179.952 130.227 180.368V176.16H132.499V188H130.227V186.688C129.949 187.125 129.56 187.477 129.059 187.744C128.557 188.011 127.976 188.144 127.315 188.144C126.568 188.144 125.885 187.952 125.267 187.568C124.648 187.184 124.157 186.645 123.795 185.952C123.443 185.248 123.267 184.443 123.267 183.536ZM130.243 183.568C130.243 183.024 130.136 182.56 129.923 182.176C129.709 181.781 129.421 181.483 129.059 181.28C128.696 181.067 128.307 180.96 127.891 180.96C127.475 180.96 127.091 181.061 126.739 181.264C126.387 181.467 126.099 181.765 125.875 182.16C125.661 182.544 125.555 183.003 125.555 183.536C125.555 184.069 125.661 184.539 125.875 184.944C126.099 185.339 126.387 185.643 126.739 185.856C127.101 186.069 127.485 186.176 127.891 186.176C128.307 186.176 128.696 186.075 129.059 185.872C129.421 185.659 129.709 185.36 129.923 184.976C130.136 184.581 130.243 184.112 130.243 183.568Z" fill="#1D2939"/>
<g filter="url(#filter0_d_684_11602)">
<rect x="16" y="202" width="295" height="48" rx="8" fill="#FCFCFD"/>
<g filter="url(#filter1_bd_684_11602)">
<rect x="32" y="215" width="36" height="22" rx="2" fill="#DA0000"/>
</g>
<mask id="mask0_684_11602" style="mask-type:alpha" maskUnits="userSpaceOnUse" x="32" y="215" width="36" height="22">
<rect x="32" y="215" width="36" height="22" rx="2" fill="white"/>
</mask>
<g mask="url(#mask0_684_11602)">
<g filter="url(#filter2_f_684_11602)">
<ellipse cx="33.5611" cy="216.197" rx="14.8746" ry="14.6477" fill="#F18243"/>
</g>
<g filter="url(#filter3_f_684_11602)">
<ellipse cx="48.9596" cy="226.798" rx="8.16077" ry="8.03627" fill="#FF0000"/>
</g>
<g filter="url(#filter4_f_684_11602)">
<ellipse cx="65.1061" cy="236.999" rx="14.2379" ry="14.0207" fill="#FF6593"/>
</g>
<g filter="url(#filter5_f_684_11602)">
<ellipse cx="62.1531" cy="215.741" rx="13.8328" ry="13.6218" fill="#FF522C"/>
</g>
<g opacity="0.5">
<path d="M32.7753 221.611L24.0137 246.917H29.1816L31.6467 239.545H38.7748L41.329 246.917H46.586L37.7947 221.611H32.7753ZM37.5274 235.332H32.9238L34.8246 229.774C34.9731 229.379 35.0919 229.013 35.1959 228.618C35.3147 229.013 35.4186 229.408 35.5672 229.788L37.5274 235.332Z" fill="#FFEEEE" style="mix-blend-mode:overlay"/>
</g>
<g opacity="0.5">
<path fill-rule="evenodd" clip-rule="evenodd" d="M26.2947 220.649C30.3235 217.227 35.552 215.437 40.8991 215.654C43.1504 215.639 45.4018 215.913 47.5792 216.491H47.7421L51.5635 215.394L49.8602 214.787C46.3794 213.546 42.7209 212.94 39.0328 212.954C33.9227 212.853 28.8719 214.094 24.4284 216.563L24.0137 216.823L25.6133 221.269L26.2947 220.649Z" fill="#FFEEEE" style="mix-blend-mode:overlay"/>
</g>
</g>
<path d="M50.6155 217.605L49.5977 220.499H50.1975L50.4839 219.656H51.3083L51.6024 220.499H52.2139L51.1961 217.605H50.6155ZM51.1651 219.176H50.631L50.8555 218.539C50.871 218.494 50.8864 218.453 50.8981 218.408C50.9135 218.453 50.9252 218.498 50.9406 218.542L51.1651 219.176Z" fill="white"/>
<path d="M53.2256 219.184C52.9508 219.079 52.9198 219.03 52.9198 218.951C52.9198 218.854 53.005 218.794 53.1404 218.794C53.303 218.794 53.4268 218.857 53.4887 218.891L53.6048 218.962L53.7596 218.505L53.69 218.46C53.5545 218.374 53.3533 218.325 53.1443 218.325C52.6876 218.325 52.3547 218.606 52.3547 218.992C52.3547 219.348 52.6798 219.54 52.9546 219.637C53.2294 219.734 53.2488 219.806 53.2488 219.888C53.2488 220.046 53.0785 220.068 52.974 220.068C52.8153 220.068 52.645 220.004 52.5483 219.948L52.4322 219.881L52.2773 220.349L52.3509 220.39C52.5173 220.484 52.7418 220.54 52.9662 220.54C53.4733 220.54 53.8138 220.263 53.8138 219.854C53.8138 219.442 53.4771 219.273 53.2256 219.184Z" fill="white"/>
<path d="M54.7145 217.864L54.1456 218.033V218.363H53.8359V218.839H54.1456V219.783C54.1456 220.046 54.1997 220.237 54.312 220.36C54.4203 220.477 54.5906 220.54 54.7803 220.54C54.9544 220.54 55.0783 220.507 55.1363 220.488L55.2137 220.462L55.1828 219.982L55.0512 220.019C55.0125 220.031 54.9661 220.038 54.8732 220.038C54.8035 220.038 54.7106 220.038 54.7106 219.768V218.839H55.2292V218.363H54.7106V217.864H54.7145Z" fill="white"/>
<path d="M56.6205 218.344L56.516 218.333C56.485 218.329 56.454 218.325 56.4153 218.325C56.2334 218.325 56.067 218.396 55.9432 218.524L55.9354 218.366H55.3975L55.4052 218.479C55.4168 218.644 55.4207 218.831 55.4207 219.071V220.499H55.9973V219.367C55.9973 219.315 56.0012 219.262 56.009 219.225C56.0515 219.004 56.1947 218.865 56.3882 218.865C56.4347 218.865 56.4618 218.865 56.4889 218.869L56.6205 218.895V218.344Z" fill="white"/>
<path d="M57.6734 218.325C57.0309 218.325 56.5781 218.786 56.5781 219.45C56.5781 220.094 57.0155 220.544 57.6386 220.544C58.1688 220.544 58.7377 220.192 58.7377 219.416C58.7377 218.771 58.3004 218.325 57.6734 218.325ZM58.1533 219.427C58.1533 219.798 57.9443 220.072 57.6579 220.072C57.3715 220.072 57.1664 219.806 57.1664 219.438C57.1664 219.202 57.2709 218.797 57.6657 218.797C58.0488 218.797 58.1533 219.21 58.1533 219.427Z" fill="white"/>
<path d="M60.6361 217.837C60.4465 217.672 60.1601 217.586 59.7885 217.586C59.537 217.586 59.3009 217.605 59.0841 217.638L58.9951 217.653V220.494H59.5679V219.441C59.626 219.445 59.6879 219.449 59.7459 219.449C60.133 219.449 60.4619 219.333 60.6709 219.123C60.8335 218.961 60.9148 218.744 60.9148 218.478C60.9148 218.219 60.8141 217.991 60.6361 217.837ZM60.3381 218.497C60.3381 218.902 59.9704 218.961 59.7537 218.961C59.6802 218.961 59.6182 218.958 59.5679 218.95V218.081C59.6221 218.073 59.6995 218.069 59.7963 218.069C60.044 218.069 60.3381 218.144 60.3381 218.497Z" fill="white"/>
<path d="M62.6729 219.933V219.213C62.6729 218.64 62.3672 218.325 61.8099 218.325C61.5506 218.325 61.2835 218.393 61.0939 218.509L61.0203 218.554L61.1751 218.996L61.2912 218.917C61.4112 218.839 61.5815 218.794 61.7518 218.794C61.8679 218.794 61.9531 218.82 62.0072 218.872C62.0537 218.917 62.0808 218.981 62.0885 219.067C61.6396 219.079 61.3067 219.184 61.1055 219.378C60.9661 219.513 60.8965 219.686 60.8965 219.888C60.8965 220.214 61.1442 220.544 61.6125 220.544C61.8137 220.544 62.0034 220.48 62.1504 220.372L62.1659 220.499H62.7116L62.6923 220.379C62.6807 220.263 62.6729 220.113 62.6729 219.933ZM61.7092 220.076C61.6241 220.076 61.4809 220.046 61.4809 219.847C61.4809 219.772 61.5041 219.708 61.5544 219.663C61.6202 219.6 61.7712 219.525 62.1079 219.517V219.746C62.1079 219.761 62.1079 219.794 62.0963 219.824C62.0576 219.937 61.9298 220.076 61.7092 220.076Z" fill="white"/>
<path d="M64.2608 218.363L63.8428 219.563C63.8312 219.592 63.8235 219.622 63.8119 219.652C63.8003 219.622 63.7886 219.592 63.7809 219.566L63.3242 218.359H62.6934L63.4829 220.278L63.4868 220.282C63.4984 220.308 63.5022 220.32 63.5061 220.327C63.5022 220.338 63.4945 220.357 63.4868 220.368C63.4171 220.511 63.3165 220.642 63.2158 220.721L63.212 220.724C63.0959 220.818 62.9798 220.863 62.9333 220.874L62.8327 220.904L62.9798 221.384L63.0765 221.369C63.1346 221.358 63.3397 221.313 63.5719 221.122C63.8544 220.882 64.0402 220.5 64.284 219.874L64.8762 218.363H64.2608Z" fill="white"/>
<path d="M51.7075 218.404C52.079 218.036 52.7099 217.815 53.3949 217.815C53.662 217.815 53.9213 217.849 54.169 217.913L54.1883 217.916L54.6256 217.789L54.4283 217.718C54.0528 217.579 53.6233 217.508 53.1782 217.508C52.5357 217.508 51.932 217.658 51.4869 217.931L51.4404 217.961L51.6262 218.486L51.7075 218.404Z" fill="white"/>
<path d="M64.3097 232.246H63.8249C63.6783 232.246 63.5655 232.291 63.4979 232.435L62.5732 234.511H63.2272C63.2272 234.511 63.34 234.234 63.3625 234.167C63.4302 234.167 64.0729 234.167 64.1631 234.167C64.1857 234.245 64.2421 234.5 64.2421 234.5H64.8284L64.3097 232.246ZM63.543 233.701C63.5993 233.567 63.791 233.068 63.791 233.068C63.791 233.079 63.8474 232.935 63.87 232.857L63.9151 233.057C63.9151 233.057 64.0391 233.601 64.0616 233.712H63.543V233.701Z" fill="white"/>
<path d="M62.621 233.767C62.621 234.234 62.1925 234.545 61.5272 234.545C61.2453 234.545 60.9747 234.489 60.8281 234.423L60.9183 233.912L60.9973 233.945C61.2002 234.034 61.3355 234.067 61.5836 234.067C61.764 234.067 61.9557 234.001 61.9557 233.845C61.9557 233.745 61.8768 233.679 61.6287 233.568C61.3919 233.457 61.0762 233.279 61.0762 232.957C61.0762 232.513 61.5159 232.213 62.1361 232.213C62.3729 232.213 62.5759 232.257 62.6999 232.313L62.6097 232.801L62.5646 232.757C62.4518 232.713 62.3053 232.668 62.091 232.668C61.8542 232.679 61.7415 232.779 61.7415 232.868C61.7415 232.968 61.8768 233.046 62.091 233.146C62.4518 233.312 62.621 233.501 62.621 233.767Z" fill="white"/>
<path d="M57.1182 232.269L57.1294 232.225H58.0992C58.2345 232.225 58.3359 232.269 58.3698 232.413L58.584 233.413C58.3698 232.88 57.8736 232.447 57.1182 232.269Z" fill="white"/>
<path d="M59.949 232.246L58.968 234.501H58.3027L57.6396 232.436C58.0448 232.664 58.4664 232.98 58.5657 233.348L58.6748 233.779L59.2837 232.235H59.949V232.246Z" fill="white"/>
<path d="M60.2062 232.235H60.8263L60.4317 234.501H59.8115L60.2062 232.235Z" fill="white"/>
<path d="M130.87 228.046C130.394 228.046 129.988 227.883 129.652 227.556C129.325 227.22 129.162 226.814 129.162 226.338C129.162 225.853 129.325 225.447 129.652 225.12C129.988 224.784 130.394 224.616 130.87 224.616C131.355 224.616 131.766 224.784 132.102 225.12C132.438 225.447 132.606 225.853 132.606 226.338C132.606 226.814 132.438 227.22 132.102 227.556C131.766 227.883 131.355 228.046 130.87 228.046ZM136.64 228.046C136.164 228.046 135.758 227.883 135.422 227.556C135.095 227.22 134.932 226.814 134.932 226.338C134.932 225.853 135.095 225.447 135.422 225.12C135.758 224.784 136.164 224.616 136.64 224.616C137.125 224.616 137.536 224.784 137.872 225.12C138.208 225.447 138.376 225.853 138.376 226.338C138.376 226.814 138.208 227.22 137.872 227.556C137.536 227.883 137.125 228.046 136.64 228.046ZM142.409 228.046C141.933 228.046 141.527 227.883 141.191 227.556C140.864 227.22 140.701 226.814 140.701 226.338C140.701 225.853 140.864 225.447 141.191 225.12C141.527 224.784 141.933 224.616 142.409 224.616C142.894 224.616 143.305 224.784 143.641 225.12C143.977 225.447 144.145 225.853 144.145 226.338C144.145 226.814 143.977 227.22 143.641 227.556C143.305 227.883 142.894 228.046 142.409 228.046ZM148.179 228.046C147.703 228.046 147.297 227.883 146.961 227.556C146.634 227.22 146.471 226.814 146.471 226.338C146.471 225.853 146.634 225.447 146.961 225.12C147.297 224.784 147.703 224.616 148.179 224.616C148.664 224.616 149.075 224.784 149.411 225.12C149.747 225.447 149.915 225.853 149.915 226.338C149.915 226.814 149.747 227.22 149.411 227.556C149.075 227.883 148.664 228.046 148.179 228.046ZM157.317 228.284C157.41 228.816 157.625 229.227 157.961 229.516C158.306 229.805 158.768 229.95 159.347 229.95C160.121 229.95 160.691 229.647 161.055 229.04C161.428 228.433 161.605 227.411 161.587 225.974C161.391 226.394 161.064 226.725 160.607 226.968C160.149 227.201 159.641 227.318 159.081 227.318C158.455 227.318 157.895 227.192 157.401 226.94C156.915 226.679 156.533 226.301 156.253 225.806C155.973 225.311 155.833 224.714 155.833 224.014C155.833 223.015 156.122 222.213 156.701 221.606C157.279 220.99 158.101 220.682 159.165 220.682C160.471 220.682 161.386 221.107 161.909 221.956C162.441 222.805 162.707 224.07 162.707 225.75C162.707 226.926 162.599 227.897 162.385 228.662C162.179 229.427 161.825 230.011 161.321 230.412C160.826 230.813 160.145 231.014 159.277 231.014C158.325 231.014 157.583 230.757 157.051 230.244C156.519 229.731 156.215 229.077 156.141 228.284H157.317ZM159.291 226.24C159.916 226.24 160.429 226.049 160.831 225.666C161.232 225.274 161.433 224.747 161.433 224.084C161.433 223.384 161.237 222.819 160.845 222.39C160.453 221.961 159.902 221.746 159.193 221.746C158.539 221.746 158.017 221.951 157.625 222.362C157.242 222.773 157.051 223.314 157.051 223.986C157.051 224.667 157.242 225.213 157.625 225.624C158.007 226.035 158.563 226.24 159.291 226.24ZM164.497 225.834C164.497 224.229 164.758 222.978 165.281 222.082C165.804 221.177 166.718 220.724 168.025 220.724C169.322 220.724 170.232 221.177 170.755 222.082C171.278 222.978 171.539 224.229 171.539 225.834C171.539 227.467 171.278 228.737 170.755 229.642C170.232 230.547 169.322 231 168.025 231C166.718 231 165.804 230.547 165.281 229.642C164.758 228.737 164.497 227.467 164.497 225.834ZM170.279 225.834C170.279 225.022 170.223 224.336 170.111 223.776C170.008 223.207 169.789 222.749 169.453 222.404C169.126 222.059 168.65 221.886 168.025 221.886C167.39 221.886 166.905 222.059 166.569 222.404C166.242 222.749 166.023 223.207 165.911 223.776C165.808 224.336 165.757 225.022 165.757 225.834C165.757 226.674 165.808 227.379 165.911 227.948C166.023 228.517 166.242 228.975 166.569 229.32C166.905 229.665 167.39 229.838 168.025 229.838C168.65 229.838 169.126 229.665 169.453 229.32C169.789 228.975 170.008 228.517 170.111 227.948C170.223 227.379 170.279 226.674 170.279 225.834ZM172.952 222.04V220.878H175.584V231H174.296V222.04H172.952ZM177.772 225.834C177.772 224.229 178.034 222.978 178.556 222.082C179.079 221.177 179.994 220.724 181.3 220.724C182.598 220.724 183.508 221.177 184.03 222.082C184.553 222.978 184.814 224.229 184.814 225.834C184.814 227.467 184.553 228.737 184.03 229.642C183.508 230.547 182.598 231 181.3 231C179.994 231 179.079 230.547 178.556 229.642C178.034 228.737 177.772 227.467 177.772 225.834ZM183.554 225.834C183.554 225.022 183.498 224.336 183.386 223.776C183.284 223.207 183.064 222.749 182.728 222.404C182.402 222.059 181.926 221.886 181.3 221.886C180.666 221.886 180.18 222.059 179.844 222.404C179.518 222.749 179.298 223.207 179.186 223.776C179.084 224.336 179.032 225.022 179.032 225.834C179.032 226.674 179.084 227.379 179.186 227.948C179.298 228.517 179.518 228.975 179.844 229.32C180.18 229.665 180.666 229.838 181.3 229.838C181.926 229.838 182.402 229.665 182.728 229.32C183.064 228.975 183.284 228.517 183.386 227.948C183.498 227.379 183.554 226.674 183.554 225.834Z" fill="black"/>
<path d="M117.58 220.156H115.317C114.632 220.156 114.106 220.366 113.79 221.047L109.475 230.842H112.527C112.527 230.842 113.053 229.532 113.159 229.218C113.475 229.218 116.474 229.218 116.895 229.218C117.001 229.585 117.264 230.79 117.264 230.79H120.001L117.58 220.156ZM114.001 227.018C114.264 226.39 115.159 224.032 115.159 224.032C115.159 224.085 115.422 223.404 115.527 223.037L115.738 223.98C115.738 223.98 116.317 226.547 116.422 227.071H114.001V227.018Z" fill="#2623C2"/>
<path d="M109.683 227.333C109.683 229.533 107.683 231 104.578 231C103.262 231 101.999 230.738 101.314 230.424L101.735 228.014L102.104 228.171C103.051 228.59 103.683 228.748 104.841 228.748C105.683 228.748 106.577 228.433 106.577 227.7C106.577 227.229 106.209 226.914 105.051 226.39C103.946 225.867 102.472 225.029 102.472 223.51C102.472 221.414 104.525 220 107.42 220C108.525 220 109.472 220.21 110.051 220.471L109.63 222.776L109.42 222.567C108.893 222.357 108.209 222.148 107.209 222.148C106.104 222.2 105.577 222.671 105.577 223.09C105.577 223.562 106.209 223.929 107.209 224.4C108.893 225.186 109.683 226.076 109.683 227.333Z" fill="#2623C2"/>
<path d="M84 220.263L84.0526 220.054H88.5788C89.2104 220.054 89.6841 220.263 89.842 220.944L90.8419 225.658C89.842 223.144 87.5262 221.101 84 220.263Z" fill="#2623C2"/>
<path d="M97.2105 220.158L92.6317 230.791H89.5265L86.4316 221.053C88.3227 222.128 90.2904 223.616 90.754 225.355L91.2633 227.386L94.1053 220.105H97.2105V220.158Z" fill="#2623C2"/>
<path d="M98.4202 220.105H101.315L99.4728 230.791H96.5781L98.4202 220.105Z" fill="#2623C2"/>
<path d="M288 232L294 226L288 220" stroke="black" stroke-width="2" stroke-linecap="round" stroke-linejoin="round"/>
</g>
<defs>
<filter id="filter0_d_684_11602" x="12" y="198" width="303" height="56" filterUnits="userSpaceOnUse" color-interpolation-filters="sRGB">
<feFlood flood-opacity="0" result="BackgroundImageFix"/>
<feColorMatrix in="SourceAlpha" type="matrix" values="0 0 0 0 0 0 0 0 0 0 0 0 0 0 0 0 0 0 127 0" result="hardAlpha"/>
<feOffset/>
<feGaussianBlur stdDeviation="2"/>
<feComposite in2="hardAlpha" operator="out"/>
<feColorMatrix type="matrix" values="0 0 0 0 0 0 0 0 0 0 0 0 0 0 0 0 0 0 0.2 0"/>
<feBlend mode="normal" in2="BackgroundImageFix" result="effect1_dropShadow_684_11602"/>
<feBlend mode="normal" in="SourceGraphic" in2="effect1_dropShadow_684_11602" result="shape"/>
</filter>
<filter id="filter1_bd_684_11602" x="4" y="190" width="92" height="79" filterUnits="userSpaceOnUse" color-interpolation-filters="sRGB">
<feFlood flood-opacity="0" result="BackgroundImageFix"/>
<feGaussianBlur in="BackgroundImage" stdDeviation="12.5"/>
<feComposite in2="SourceAlpha" operator="in" result="effect1_backgroundBlur_684_11602"/>
<feColorMatrix in="SourceAlpha" type="matrix" values="0 0 0 0 0 0 0 0 0 0 0 0 0 0 0 0 0 0 127 0" result="hardAlpha"/>
<feOffset dy="4"/>
<feGaussianBlur stdDeviation="14"/>
<feColorMatrix type="matrix" values="0 0 0 0 0.454902 0 0 0 0 0.572549 0 0 0 0 0.541176 0 0 0 0.15 0"/>
<feBlend mode="normal" in2="effect1_backgroundBlur_684_11602" result="effect2_dropShadow_684_11602"/>
<feBlend mode="normal" in="SourceGraphic" in2="effect2_dropShadow_684_11602" result="shape"/>
</filter>
<filter id="filter2_f_684_11602" x="-1.31348" y="181.549" width="69.7493" height="69.2954" filterUnits="userSpaceOnUse" color-interpolation-filters="sRGB">
<feFlood flood-opacity="0" result="BackgroundImageFix"/>
<feBlend mode="normal" in="SourceGraphic" in2="BackgroundImageFix" result="shape"/>
<feGaussianBlur stdDeviation="10" result="effect1_foregroundBlur_684_11602"/>
</filter>
<filter id="filter3_f_684_11602" x="30.7988" y="208.762" width="36.3215" height="36.0728" filterUnits="userSpaceOnUse" color-interpolation-filters="sRGB">
<feFlood flood-opacity="0" result="BackgroundImageFix"/>
<feBlend mode="normal" in="SourceGraphic" in2="BackgroundImageFix" result="shape"/>
<feGaussianBlur stdDeviation="5" result="effect1_foregroundBlur_684_11602"/>
</filter>
<filter id="filter4_f_684_11602" x="40.8682" y="212.979" width="48.4758" height="48.0415" filterUnits="userSpaceOnUse" color-interpolation-filters="sRGB">
<feFlood flood-opacity="0" result="BackgroundImageFix"/>
<feBlend mode="normal" in="SourceGraphic" in2="BackgroundImageFix" result="shape"/>
<feGaussianBlur stdDeviation="5" result="effect1_foregroundBlur_684_11602"/>
</filter>
<filter id="filter5_f_684_11602" x="28.3203" y="182.119" width="67.6655" height="67.2437" filterUnits="userSpaceOnUse" color-interpolation-filters="sRGB">
<feFlood flood-opacity="0" result="BackgroundImageFix"/>
<feBlend mode="normal" in="SourceGraphic" in2="BackgroundImageFix" result="shape"/>
<feGaussianBlur stdDeviation="10" result="effect1_foregroundBlur_684_11602"/>
</filter>
</defs>
</svg>
